<?xml version="1.0" encoding="UTF-8"?>
<svg xmlns="http://www.w3.org/2000/svg" width="512" height="512" viewBox="0 0 512 512" role="img" aria-label="Logo Les Beautés de Léa">
  <defs>
    <linearGradient id="g1" x1="0" y1="0" x2="1" y2="1">
      <stop offset="0" stop-color="#ff4fa2"/>
      <stop offset="1" stop-color="#ff7bb8"/>
    </linearGradient>
    <linearGradient id="g2" x1="0" y1="1" x2="1" y2="0">
      <stop offset="0" stop-color="#ffe2f0"/>
      <stop offset="1" stop-color="#ffffff"/>
    </linearGradient>
    <filter id="s" x="-20%" y="-20%" width="140%" height="140%">
      <feDropShadow dx="0" dy="10" stdDeviation="14" flood-color="#1a1423" flood-opacity="0.18"/>
    </filter>
  </defs>

  <!-- Badge -->
  <circle cx="256" cy="256" r="212" fill="url(#g2)" stroke="rgba(255,79,162,.35)" stroke-width="10" filter="url(#s)"/>
  <circle cx="256" cy="256" r="170" fill="rgba(255,255,255,.55)" stroke="rgba(26,20,35,.08)" stroke-width="2"/>

  <!-- Minimal “bee” icon -->
  <g transform="translate(256 214)">
    <ellipse cx="0" cy="0" rx="56" ry="44" fill="url(#g1)"/>
    <path d="M-38 -6h76" stroke="rgba(255,255,255,.75)" stroke-width="8" stroke-linecap="round"/>
    <path d="M-28 12h56" stroke="rgba(255,255,255,.65)" stroke-width="8" stroke-linecap="round"/>
    <circle cx="40" cy="-8" r="6" fill="rgba(26,20,35,.65)"/>
    <path d="M-18 -44c-22 -18 -52 5 -48 30 4 25 34 34 60 16" fill="none" stroke="rgba(255,79,162,.55)" stroke-width="10" stroke-linecap="round"/>
    <path d="M18 -44c22 -18 52 5 48 30-4 25-34 34-60 16" fill="none" stroke="rgba(255,79,162,.55)" stroke-width="10" stroke-linecap="round"/>
    <path d="M-52 10c-18 10 -28 24 -30 42" stroke="rgba(255,79,162,.45)" stroke-width="10" stroke-linecap="round" fill="none"/>
    <path d="M52 10c18 10 28 24 30 42" stroke="rgba(255,79,162,.45)" stroke-width="10" stroke-linecap="round" fill="none"/>
  </g>

  <!-- Text -->
  <g text-anchor="middle" font-family="Playfair Display, serif">
    <text x="256" y="332" font-size="42" font-weight="700" fill="#1a1423">Les Beautés</text>
    <text x="256" y="372" font-size="34" font-weight="600" fill="#1a1423">de Léa</text>
  </g>
  <text x="256" y="416" text-anchor="middle" font-family="Manrope, system-ui, sans-serif" font-size="18" font-weight="700" fill="rgba(26,20,35,.62)">
    esthétique • douceur • éclat
  </text>
</svg>
